<?xml version="1.0" encoding="UTF-8"?>
<svg id="Layer_1" data-name="Layer 1" xmlns="http://www.w3.org/2000/svg" viewBox="0 0 835.36 855.73">
  <defs>
    <style>
      .cls-1 {
        fill: #181410;
        stroke-width: 0px;
      }
    </style>
  </defs>
  <path class="cls-1" d="M595.95,731.42c-6.55,0-13.1-.09-19.66-.09-6.55,0-13.1-.39-19.66-.39s-13.1.45-19.66.45c-6.55,0-13.1-.05-19.66-.06s-13.1-.43-19.66-.44c-3.19,0-6.38-.39-9.45-1.42-3.22-1.08-4.87-3.25-5.44-6.6-.62-3.67.35-6.69,2.27-9.86,1.67-2.74,4.07-4.09,6.71-5.48,3.09-1.62,6.39-2.65,9.63-3.9,2.79-1.07,5.45-2.51,8.24-3.6,4.55-1.78,8.43-4.65,12.17-7.68,2.15-1.74,4.15-3.74,5.59-6.22,1.92-3.3,3.41-6.8,4.4-10.45.49-1.79.63-3.7.91-5.57.39-2.61,1.21-5.19.94-7.81-.26-2.53-1.14-4.97-1.61-7.48-.41-2.17-.85-4.27-1.56-6.35-.69-2.02-1.32-4.05-2.18-6-2.07-4.69-4.72-9.13-6.71-13.86-1.42-3.38-2.67-6.83-4.22-10.16-2.97-6.38-5.75-12.84-8.69-19.22-3.02-6.55-6.3-12.98-9.36-19.51-2.37-5.07-4.88-10.07-8.11-14.71-3.07-4.4-6.65-8.19-11.35-10.72-2.34-1.26-4.94-1.83-7.51-2.48-2.83-.71-5.82-.9-8.52-2.09-1.95-.86-3.4-2.19-4.38-4.21-1.48-3.03-.84-6.23,1.36-8.77,2.17-2.5,4.82-3.25,7.75-3.39,2.21-.11,4.34-.56,6.46-.99,3.62-.74,5.4-3.3,6.33-6.82.11-.41.5-.76.53-1.18.33-4.58.47-9.15-.53-13.66-.79-3.56-2.89-5.77-6.64-6.66-1.55-.37-2.98-1.28-4.6-1.28-6.4,0-12.8-.08-19.2-.08-6.4,0-12.8.1-19.2.1s-12.8-.02-19.2-.02c-6.4,0-12.8.07-19.2.07s-12.8.25-19.2.25c-6.4,0-12.8-.42-19.2-.42-2.55,0-5.08.63-7.37,1.75-2.26,1.11-3.25,3.34-3.91,5.66-.29,1-.4,2.02-.44,3.04-.16,4.03-.74,8.08.03,12.09.66,3.45,2.64,6.3,5.86,7.5,1.89.7,4.11.89,6.2.86,1.72-.02,3.36.49,5.05.76,2.55.41,5.01,1.08,6.41,3.22,1.09,1.67,1.41,3.7,1.06,5.89-.36,2.23-1.66,3.64-3.1,5.07-.97.96-2.17,1.62-3.38,1.96-1.63.47-3.42.54-5.11.61-5.91.24-11.03,2.52-15.96,5.64-2.91,1.84-5.53,3.89-7.68,6.62-2.34,2.97-3.77,6.39-5.54,9.66-2.5,4.63-4.59,9.45-6.81,14.2-3.72,7.97-7.73,15.81-11.35,23.83-1.23,2.73-2.35,5.49-3.45,8.28-2.37,6.03-5.64,11.66-8.23,17.59-1.98,4.53-4.53,8.83-5.91,13.59-.59,2.04-.4,4.29-.88,6.34-.67,2.87-.5,5.64-.53,8.5-.05,4.56.88,8.85,2.3,13.15,1.28,3.86,2.68,7.64,5.29,10.8,1.72,2.08,3.83,3.75,5.99,5.39,5.14,3.9,10.98,6.44,16.83,8.9,2.69,1.13,5.5,2.01,8.16,3.24,2.44,1.12,4.83,2.24,6.71,4.24,2.34,2.48,3.9,5.25,4.01,8.72.08,2.48.07,4.93-1.44,7.11-1.72,2.48-4.41,2.85-7.1,3.27-8.94,1.37-17.9,1.03-26.87,1.05-5.99,0-11.99-.37-17.98-.37s-11.99.13-17.98.14c-5.99,0-11.99.17-17.98.17s-11.99.19-17.98.19-11.99-.42-17.98-.42c-5.99,0-11.99-.01-17.98-.01-5.99,0-11.99.52-17.98.52-5.99,0-11.99,0-17.98,0-5.99,0-11.99-.5-17.98-.51-3.2,0-6.46-.13-9.55-1.12-2.15-.68-3.63-2.25-4.63-4.21-.78-1.51-1.56-3.1-1.63-4.87-.21-5.12.24-10.25.21-15.38s-.63-10.24-.6-15.36.39-10.24.36-15.36c-.02-2.81.13-5.64.39-8.43.3-3.25,2.11-5.96,4.61-7.99,1.65-1.34,3.79-1.82,5.76-2.47,7.12-2.36,14.29-4.61,21.48-6.75,5.2-1.56,10.2-3.78,15.4-5.34,2.49-.75,5.13-1.31,7.3-2.85,1.8-1.28,3.14-2.9,4.12-4.98,2.17-4.6,4.15-9.24,5.85-14.02,1.74-4.89,3.3-9.85,5.07-14.72,2.68-7.34,5.84-14.51,8.41-21.89.76-2.18,1.5-4.39,2.33-6.55,1.98-5.19,3.72-10.47,5.66-15.67,1.47-3.95,3.26-7.77,4.71-11.72,1.87-5.1,3.91-10.13,5.87-15.19,1.44-3.71,2.4-7.59,3.8-11.31,1.68-4.45,3.17-8.98,4.94-13.4,2-4.99,3.75-10.07,5.67-15.09,1.92-5.01,3.94-9.99,5.91-14.99,1.52-3.86,2.48-7.93,3.92-11.82,2.59-6.98,5.36-13.9,7.86-20.92,2.29-6.44,4.88-12.77,7.28-19.17,2.07-5.54,3.84-11.2,5.89-16.75,2.18-5.9,4.92-11.59,7.1-17.49,2.53-6.87,5.23-13.69,7.58-20.64.92-2.72,1.72-5.47,2.73-8.16,2.41-6.4,5.22-12.65,7.54-19.09,1.13-3.16,2.26-6.32,3.39-9.48.76-2.12,1.37-4.31,2.16-6.42,2.26-6.06,4.44-12.15,6.64-18.23,1.1-3.04,2.5-5.97,3.66-8.99,1.97-5.12,3.47-10.42,5.39-15.56,2.6-6.98,5.51-13.85,8.11-20.83,2.78-7.5,5.62-14.97,8.4-22.47,1.84-4.98,3.66-9.96,5.51-14.94,1.91-5.15,3.56-10.39,5.59-15.49,2.1-5.28,3.65-10.76,5.75-16.04,1.21-3.05,2.43-6.12,3.59-9.2,1.11-2.95,2.12-5.99,3.85-8.71,1.62-2.55,3.93-4.22,6.68-5.07,1.7-.53,3.55-.78,5.35-.78,6.92.01,13.86.56,20.73-.03,5.65-.48,11.32-.59,16.97-.56,5.65.02,11.29.05,16.94-.17,2.11-.08,3.98-.66,5.81-1.64,1.98-1.06,3.87-2.23,5.61-3.69,2.48-2.08,4.91-4.22,7.42-6.27,2.65-2.17,5.52-4.05,8.15-6.24,2.06-1.71,4.27-3.25,6.45-4.8,3.78-2.7,7.89-4.91,11.8-7.42,2-1.29,4.18-2.3,6.27-3.44,3.6-1.95,7.27-3.77,10.96-5.53,4.02-1.92,8.16-3.53,12.29-5.21,4.02-1.64,8.13-2.92,12.3-4.01,2.02-.53,4.14-1.5,6.32-1.37,1.1.07,2.13.24,3.2-.17.92-.35,1.95-.1,2.82.23,2.21.85,4.64.32,6.88,1.1,5.08,1.77,8.6,4.84,10.65,9.86,1.5,3.67,2.42,7.43,2.12,11.32-.21,2.75-.37,5.55-1.15,8.26-.37,1.28-.41,2.67-.62,3.97-.55,3.46-1.41,6.82-2.24,10.2-1.09,4.44-2.78,8.72-3.83,13.17-1.02,4.33-2.65,8.5-3.57,12.86-.83,3.94-1.7,7.87-2.45,11.82-.25,1.32-.68,2.63-.84,3.97-.3,2.54-.1,5.15-.47,7.66-.57,3.89-1.08,7.81-1.97,11.68-1.31,5.72-3.15,11.26-5.16,16.75-.94,2.57-2.16,5.13-2.37,7.92-.26,3.34.99,6.48,2.05,9.52,1.93,5.53,3.93,11.04,5.85,16.58.92,2.65,2.57,5.05,3.5,7.7,1.79,5.06,3.12,10.3,4.95,15.34,1.96,5.39,3.96,10.76,5.91,16.16,2.53,7.01,5.1,14,7.67,20.98,2.97,8.08,5.81,16.21,8.82,24.27,2.2,5.89,4.38,11.79,6.49,17.72,1.13,3.17,2.17,6.36,3.43,9.47,1.84,4.52,3.01,9.3,4.78,13.85,1.44,3.69,2.8,7.42,4.26,11.11,1.82,4.6,3.06,9.4,5.02,13.95.7,1.62,1.04,3.38,1.64,5.05,1.5,4.19,3.09,8.36,4.59,12.55,1.63,4.54,3.33,9.05,4.96,13.59,1.37,3.79,2.86,7.54,4.23,11.33,1.72,4.76,3,9.69,4.82,14.41,2.02,5.25,4.05,10.48,5.98,15.76,3.02,8.26,6.11,16.49,9.1,24.76,2.39,6.6,4.8,13.2,7.18,19.8,1.88,5.22,3.58,10.51,5.51,15.72,1.38,3.72,2.86,7.41,4.19,11.15,1.73,4.89,3.45,9.78,5.22,14.65,1.61,4.42,2.7,9.03,4.31,13.45,1.34,3.67,3.02,7.21,4.36,10.88,1.97,5.39,3.77,10.84,5.77,16.22.66,1.77,1.03,3.68,2.01,5.35,1.93,3.31,5.1,5.06,8.58,6.35,7.44,2.76,14.89,5.51,22.41,8.03,5.61,1.88,11.48,3.04,17.03,5.09,2.89,1.06,5.21,3.02,6.83,5.67,1.03,1.69,1.76,3.57,1.85,5.55.09,2.08.04,4.17.04,6.25,0,5.25-.44,10.49-.44,15.74,0,5.25.12,10.49.11,15.74s-.13,10.49-.14,15.74c0,3.02-.46,5.94-2.9,7.87-1.61,1.27-3.66,1.58-5.74,1.83-5.64.67-11.27,1.26-16.92,1.24s-11.31-.62-16.96-.59c-5.89.03-11.79.08-17.68.09-5.89.01-11.79-.23-17.68-.23s-11.79.25-17.68.24-11.79.37-17.68.37ZM407.89,406.2c.03-5.14.03-10.29.41-15.43.37-5.1.81-10.18,1.32-15.3.44-4.34.31-8.77.49-13.15.12-2.99,1.1-5.86.9-8.88,0-.12.44-.22.47-.33.81-2.89.89-5.9,1.34-8.84.34-2.28.76-4.57,1.15-6.83.36-2.08.7-4.21,1.04-6.29.62-3.79,1.35-7.54,2.04-11.31.56-3.06,1.08-6.13,1.79-9.16.77-3.25,1.33-6.55,2.13-9.8,1.41-5.68,2.73-11.37,4.41-16.98,1.46-4.86,3.27-9.6,4.87-14.41,2.43-7.31,5.3-14.44,8.32-21.52,2.15-5.06,4.51-10.04,7.06-14.92,1.5-2.87,3.35-5.55,5.06-8.28,3.14-5.01,6.01-10.24,9.74-14.87,2.24-2.77,4.71-5.32,7.36-7.69.66-.59,1.51-.87,2.38-1.02,1.29-.22,2.21.15,2.34,1.47.17,1.8-.71,3.45-1.48,5.12-1.9,4.1-3.91,8.17-5.67,12.34-2.09,4.95-3.86,10.04-5.83,15.04-1.14,2.9-2.01,5.9-2.86,8.88-1,3.53-2.84,6.78-3.98,10.26-.97,2.95-1.67,5.99-2.62,8.94-1.45,4.52-2.48,9.18-3.78,13.75-1.24,4.34-2.74,8.62-3.86,12.99-1.15,4.47-2.4,8.94-3.45,13.44-.9,3.85-1.34,7.81-2.22,11.66-1.5,6.59-2.89,13.21-3.98,19.88-.57,3.47-1.3,6.9-1.63,10.43-.17,1.85-.57,3.78-1.1,5.56-.75,2.49-.25,5.13-.88,7.64-.53,2.14-.33,4.43-.61,6.68-.53,4.22-.54,8.45-1.43,12.68-.38,1.8.5,3.53.55,5.29.04,1.48.44,2.92.86,4.35,1.62,5.56,8.32,5.65,11.25,3.28,2.39-1.93,4.48-4.24,6.3-6.71,3.18-4.33,6.12-8.83,9-13.37,2.13-3.35,4.75-6.4,6.79-9.81,2.29-3.83,4.7-7.58,7.1-11.33,2.76-4.32,5.07-8.94,7.69-13.34,3.15-5.29,6.14-10.68,9.05-16.12,2.65-4.95,5.62-9.74,7.93-14.87,2.57-5.72,4.57-11.64,5.58-17.79.43-2.65.2-5.41.22-8.11.02-2.48-.3-4.91-1.64-6.98-.76-1.18-3.45-1.93-4.77-1.51-1.5.48-3.12.51-4.52,1.33-1.21.71-2.56,1.19-3.79,1.87-1.05.58-2.19,1.09-3.39,1.07-2.6-.04-3.43-1.37-2.89-3.92.08-.35-.08-.85.08-1.18,1.54-3.17,4.36-5.49,6.6-8.14,1.78-2.11,3.25-4.43,4.83-6.67,2-2.84,3.9-5.75,5.71-8.73,2.45-4.06,4.27-8.36,6-12.71.83-2.09.71-4.52,1.41-6.65.89-2.68,1.36-5.4,1.93-8.13.39-1.89.94-3.8,1.35-5.67.52-2.33.14-4.8.62-7.13.61-2.91,1.12-5.86,1.63-8.8.63-3.67,1.78-7.24,2.46-10.88.7-3.72,2.3-7.23,3.05-10.93.53-2.62,1.25-5.2,1.9-7.8.42-1.71.92-3.4,1.37-5.1.85-3.19,1.41-6.62.65-9.92-.69-2.99-2.77-4.67-5.31-4.93-1.88-.19-3.81.04-5.67.59-3.99,1.19-7.68,3.12-11.46,4.83-6.98,3.16-13.84,6.52-20.33,10.55-4.1,2.55-7.75,5.78-11.64,8.63-2.26,1.66-4.77,3.06-6.84,4.94-5.17,4.67-10.33,9.41-14.88,14.71-1.19,1.39-2.47,2.73-3.54,4.2-2.63,3.6-5.35,7.11-7.86,10.81-2.92,4.3-6.19,8.4-8.62,12.97-3.07,5.76-6.05,11.62-8.45,17.72-1.81,4.6-2.94,9.45-4.47,14.14-1.54,4.7-2.77,9.51-4.55,14.13-.77,1.99-1.86,3.8-3.39,5.4-1.54,1.61-3.78,1.47-4.78-.48-.62-1.21-1.01-2.6-1.04-3.86-.06-3.24-1.55-6.4-1.24-9.67.1-1.09.59-2.19.52-3.29-.13-2.15-1.24-4.04-2.13-5.99-.62-1.35-1.8-2.35-2.83-2.02-1.67.53-3.13,1.35-4.08,2.88-1.1,1.76-2.15,3.51-3.13,5.36-.83,1.57-1.84,3.03-2.75,4.55-1.17,1.95-2.23,3.97-3.1,6.04-1.45,3.49-2.57,7.09-3.7,10.72-1.33,4.25-3.09,8.37-3.98,12.75-.29,1.43-.22,2.98-.65,4.36-.54,1.76-1.24,3.51-1.42,5.27-.26,2.61-.76,5.11-.49,7.77.02.18-.37.4-.42.57-1.09,3.54-.64,7.27-.98,10.88-.51,5.46.02,10.99.03,16.5,0,.61-.37,1.26-.18,1.82.99,2.87.17,5.99.89,8.93.45,1.85,1.04,3.76,1.49,5.62,1.06,4.31,2.29,8.58,3.62,12.83,2.54,8.16,5.2,16.27,7.91,24.37,1.12,3.36,2.09,6.77,3.19,10.13,1.94,5.92,4.63,11.57,6.85,17.38,2.37,6.22,4.64,12.47,7.21,18.61,2.15,5.13,4.32,10.24,6.99,15.13.79,1.45,1.76,2.63,3.24,3.54.95.59,1.77.9,2.49.12.87-.92,1.46-2.15,1.41-3.48-.2-4.87-.36-9.7-.95-14.59-.77-6.35-.28-12.84-.48-19.26-.09-2.94-.62-5.87-.62-8.81Z"/>
</svg>