<?xml version="1.0" encoding="UTF-8"?>
<svg id="Layer_1" data-name="Layer 1" xmlns="http://www.w3.org/2000/svg" viewBox="0 0 1883.08 855.73">
  <defs>
    <style>
      .cls-1 {
        fill: #d99a3a;
        stroke-width: 0px;
      }
    </style>
  </defs>
  <path class="cls-1" d="M521.04,476.9c6.06-.49,10.7-7.88,12.13-13.19.12-.45.19-.93.19-1.4-.05-10.36-12.51-13.14-9.02-32.16.85-3.54,2.93-6.5,6.06-8.9.28-.21.59-.4.9-.56,15.33-8.02,9.37-28.07,12.46-42.37.08-.35.12-.7.13-1.06,1.06-32.85,3.41-66.02,12.87-97.66,5.43-22.9,22.08-17.97,29.94-.22.24.54.39,1.12.47,1.71,1.49,11.79,2.7,24.03.72,35.9-2.78,24.3-6.44,48.18-10.32,72.3-.03.17-.05.35-.06.52-.87,13.99-12.35,38.91,6.6,44.63.39.12.81.19,1.22.23,44.07,4.16,40.79-5.05,38.04-43.8-.01-.21-.02-.42-.01-.63,1.18-43.69,6.46-99.41,49.37-122.31.25-.14.52-.26.79-.36,35.52-13.72,70.85,16.13,76.8,51.06,4.89,41.38-21.6,81.18-54.73,103.8-.12.08-.24.16-.37.23-29.56,17-18.38,66.75,17.96,60.5,54.98-6.77,85.6-162.55,83.46-210.1,0-.16-.02-.32-.04-.48-3.97-31.22,14.52-39.03,39.49-23.86.34.21.68.45.97.72,5.45,5.03,7.67,14.28,11.71,20.18,9.81,15.2,31.64,12.85,45.8,22.06,14.72,7.77,10.66,27.27,8.33,40.62-2.46,20.85-7.68,41.36-8.6,62.39-1.54,23.73-5.71,49,3.28,71.77.09.24.2.48.32.71,9.6,18.31,31.11,1.8,37.86-11.08.13-.26.29-.5.46-.73,14.51-19.59-14.51-43,3.94-62.21,9.91-9.43,12.95-1.13,20.21-.16,1.71.23,3.46-.26,4.76-1.39,5.23-4.6,8.29-16.62,10.29-21.62,10.48-24.19,18.67-49.25,25.05-74.82.11-.42.26-.83.45-1.21,5.21-10.52,4.81-25.09,14.66-32.54.38-.29.79-.53,1.23-.71,10.65-4.44,29.37,1.11,33.45,12.09.2.54.3,1.12.32,1.69.7,17.4-12.76,33.83-9.32,51.98.03.15.05.3.06.45,1.69,19.2,8.36,37.62,15.18,55.51.08.21.15.42.21.63,4.48,16.64,5.29,33.64,6.98,50.69.04.36.1.73.2,1.08,7.52,26.72,35.74-11.17,43.93-21.14.2-.25.39-.51.56-.78,4.63-7.77,6.43-16.48,6.52-25.51.77-44.97,29.75-147.93,91.26-120.72.32.14.64.32.94.51,40.21,26.21,32.57,48.18,42.08,87.99,4.38,17.05,27.02,19.98,40.05,11.27.4-.26.77-.58,1.09-.93,8.9-9.8-.29-23.39,1.11-35.06.05-.44.07-.88.02-1.33-1.51-15.64,2.74-31.26,3.69-46.81.01-.24.04-.47.09-.71,7.9-41.83,26.25-124.97,63.16-148.46,19.67-12.81,44.27-.48,51.34,20.68,15.41,38.53,12.45,82.6,2.29,121.97-4.73,19.59-15.04,37.34-24.85,54.74-.16.28-.34.56-.55.81-6.03,7.6-12.08,15.1-18.28,22.55-.18.22-.38.43-.59.62-7.11,6.6-15.15,12.2-21.86,19.27-14.02,15.16.09,36.01,7.7,50.78.09.17.16.33.23.5,5.3,13.11,12.18,27.03,22.49,37.04,21.95,20.07,53.46-1.29,67.34-21.11.28-.4.52-.84.7-1.3,5.1-13.17-2.02-28.54-1.25-42.4.01-.27.01-.53,0-.8-2.17-26.55-6.78-54.67,4.21-79.96.05-.11.09-.22.13-.34,10.82-31.79,38.08-64.11,73.25-67.28.19-.02.38-.03.56-.03,51.23-1.03,63.14,61.21,41.21,98.57-.09.16-.18.33-.26.5-10.09,22.56-24.33,43.06-37.72,63.77-7.61,10.92-17.59,22.33-19.97,35.91-.08.47-.11.96-.08,1.43,2.24,42.04,41.17,33.54,62.92,9.54.09-.1.18-.19.28-.28,18.87-17.56,33.58-39.71,45.17-62.59,8.97-19.68,28.28-12.11,20.02,9.38-10.42,29.1-24.58,57.3-46.58,79.51-34.56,36.77-77.75,33.87-113.3.43-14.13-12.71-26.98-.08-39.41,7.37-.21.13-.42.27-.61.42-38.36,30.72-73.68,20.49-97.87-20.42-10.68-17.21-21.82-34.41-28.16-53.76-7.32-21.07-10.23-19-30.06-15.87-.51.08-1.05.1-1.57.05-30.35-2.86-25.38,4.99-33.36,29.8-.09.27-.16.55-.2.83-4.95,29.27-13.78,69.42-42.15,84.58-.23.12-.48.24-.72.34-21.96,8.79-42.89-4.4-54.67-23.08-.1-.16-.21-.31-.32-.45-8.6-10.7-12.75-23.72-17.36-36.39-.11-.31-.2-.62-.26-.94-2.1-10.99-2.76-22.48-17.56-10.15-.2.17-16.13,13.26-41.76,34.83-.15.13-.28.28-.39.45-12.31,19.69-35.92,38.72-59.64,26.38-14.94-6.98-24.78-21.15-37.03-31.36-.46-.38-.96-.7-1.51-.93-18.38-7.66-29.52,18.53-43.13,27-.16.1-.32.21-.47.33-14.68,11.71-38.69,18.43-51.28.47-.12-.18-.24-.37-.35-.55-20.74-35.62-16.49-79.78-15.19-119.53,0-.13,0-.26,0-.4-1.04-24.47,17.76-56.85-4.32-75.79-.37-.32-.79-.6-1.22-.82-19.23-9.71-21.23,16.36-23.14,29.51-1.99,17.91-7.08,35.3-11.63,52.76-15.27,55.03-51.1,136.51-120.51,125-.2-.03-.41-.08-.61-.13-54.91-13.98-43.23-43.45-62.33-47.52-.32-.07-.66-.11-.99-.13-7.28-.41-14.57-.46-21.85-.38-10.86.12-21.7-.64-32.51-1.7-5.21-.51-10.18.25-13.97,5.46-11.86,13.11-17.7,32.5-33.76,41.16-25.17,12.71-45.42-13.97-54.01-34.82-.07-.16-.12-.32-.18-.48-7.65-22.74-9.58-47.04-13.47-70.59-1.8-11.71-1.2-27.63-9.07-37.49-.98-1.22-2.41-2.04-3.96-2.19-5.9-.57-11.08,3.79-15.77,6.83-9.51,5.54-19.77,9.32-30.36,12.28-.14.04-.28.09-.42.14-49.32,18.39-67.71-4.43-61.47,51.68.01.12.02.24.03.35,2.78,50.03,1.55,100.09.9,150.14,0,.1-.04.2-.02.3,7.47,24,23.49,32.66,47.22,24.43.24-.08.49-.15.73-.21,14.76-3.17,29.83-4.41,44.44-8.18.22-.06.44-.1.67-.13,77.13-10.67,155.03-12.95,232.52-5.9,46.25,6.61,92.93,11.75,138.1,23.96.1.03.21.06.31.09,12.24,4.14,34.1,2.28,35.62,19,.02.26.03.52.03.78-.37,18.78-23.08,14.44-35.6,11.5-.33-.08-.66-.12-.99-.14-7.73-.45-15.42-1.3-23.06-2.69-62.64-7.73-125.45-15.36-188.79-15.26-63.01.07-125.62,9.8-187.31,21.99-45.87,10.72-90.86,24.32-135.65,38.85-.11.04-.23.08-.34.12-13.63,5.41-27.66,9.78-41.34,15.07-.18.07-.35.12-.54.17-9.65,2.56-20.34,10.84-30.14,5.57-.44-.24-.86-.54-1.22-.89-14.19-13.75,18.79-31.44,28.09-40.85.38-.39.81-.74,1.28-1.03,82.29-49.77,71.28-20.57,70.58-120.47-2.72-43.74-.06-88.05-9.3-131.19-.06-.3-.1-.61-.12-.92-.92-17.59-16.99-15.52-22.54-29.16-4.52-9.6-3.88-26.26,5.44-32.16.4-.26.86-.45,1.31-.6,20.24-6.61,30.22-7.18,27.91-32.64-1.16-24.01-3.32-46.55-4.85-70.33-1.21-20.39-.56-40.83-1.67-61.24,0-.15-.02-.29-.04-.44-.98-7.35,1.76-18.87-4.34-23.51-9.23-6.17-24.63-2.51-33.13-11.1-14.83-13.48-14.11-41.86,2.94-53.39.24-.16.49-.31.75-.44,11.65-5.94,26.51-3.46,39.04-4.31,15.92-.48,31.71-2.17,47.69-1.8,54.45-.96,108.94-.3,163.43,2.61.11,0,.22,0,.33,0,22.52-.23,44.88,2.32,67.35,2.98.16,0,.32,0,.48,0,16.25-.76,57.6-.93,52.08,24.08-.12.54-.32,1.07-.59,1.56-6.57,11.7-24.02,13.79-35.96,14.32-.29.01-.58.05-.87.11-20.58,4.18-41.44,3.69-62.26,5.03-.1,0-.21.03-.31.03-54.15,2.38-82.36-.42-129.32,1.14-18.68.62-42.16,3.46-54.2,19.35-7.43,10.53-6.79,25.77-7.89,38.34-1.28,23.67-1.57,47.35-.62,71.09,0,.16.02.31.04.46,2.38,19.46-5.9,55.17,5.8,70.68.55.73,1.26,1.35,2.08,1.77,24.62,12.6,54-2.5,73.35-18.65.24-.2.5-.38.77-.54,11.7-6.88,23.22-15.06,31.13-26.32,9.84-13.49,3.01-37.76,20.7-45.02,35.56-16.22,25,72.52,24.27,92.07-.01.32,0,.62.04.93,2.59,21.23,6.02,103.16,19.37,118.55,1.2,1.39,3,2.19,4.82,2.04ZM1162.8,398.48c-.13,17.02-.33,34.14,4.94,50.54,4.34,12.36,17.3,31.27,31.42,18.44.2-.18.39-.38.56-.6,12.89-16.05,19.39-43.59,21.24-64.04,2.47-21.03-29.98-18-20.82-40.82,2.75-6.39,8-6.3,13.32-9.47,9.82-5.17,1.15-31.12-3.5-39.39-.15-.26-.26-.53-.36-.81-4.07-12.21-17.49-18.5-28.24-10.25-16.99,13.45-19.55,74.62-18.55,96.41ZM1481.49,368.11c0,.26-.02.52-.06.79-3.12,18.86,6.91,42.84,24.26,17.92,17.24-23.59,33.59-48.04,38.99-77.18,5.34-25.67-18.16-39.38-37.88-22.71-.17.14-.33.3-.48.46-19.78,21.24-25.35,52.62-24.83,80.73ZM1394.2,207.41c1.63-11.42-2.98-39.41-19.11-26.54-.44.35-.8.79-1.09,1.27-19.97,33.54-27.64,72.81-34.1,110.89-.02.14-.04.27-.05.41-.54,6.46-9.61,38.19.14,39.55,1.17.16,2.37-.23,3.3-.96,13.73-10.73,22.43-28.93,29.02-44.77.05-.13.11-.25.18-.37,12.79-23.98,22.56-51.16,21.67-78.71,0-.26,0-.51.04-.77ZM662.8,365.97c.8,76.76,77.53-40.64,53.34-66.15-14.29-20.55-42.4.49-46.36,19.22-4.43,15.06-7.76,31.19-6.98,46.94ZM1039.83,429.91c-.01-.14-.02-.29-.01-.44.48-15.82-1.68-31.03-4.28-46.7-12.19-58.56-23.55-3.03-32.24,19.66-3.17,9.55-9.72,17.82-12.37,27.48-.16.57-.2,1.18-.13,1.77,4.25,37.09,52.51,41.64,49.03-1.77Z"/>
  <g>
    <path class="cls-1" d="M925.67,589.81c1.6-.32,2.99-.83,4.38-.84,13.09-.04,26.18-.06,39.27.09,3.15.04,6.34.56,9.44,1.23,8.18,1.77,13.85,7.07,18.42,13.68,4.34,6.29,6.44,13.3,6.17,20.96-.28,7.93-1.81,15.53-6.39,22.2-1.33,1.95-2.98,3.83-4.88,5.2-3.12,2.23-6.44,4.26-9.9,5.92-3.96,1.9-8.15,2.6-12.7,2.08-3.78-.43-7.68.18-11.53.33-.8.03-1.6.09-2.4.09-8.28.03-16.57-.09-24.84.14-4.36.12-5.23-1.64-5.21-5.08.11-14.64.08-29.29,0-43.94-.03-4.77-.5-9.53-.54-14.3-.02-2.48.44-4.97.72-7.77ZM958.07,647.5c7.16.03,12.31-.94,16.87-2.63,3-1.12,5.96-2.36,8.12-4.89,3.53-4.14,5.01-9.19,4.86-14.35-.16-5.69-1.84-11.21-5.38-15.95-2.57-3.43-5.72-5.89-10.13-6.38-2.9-.32-5.81-.56-8.72-.84-2.11-.2-4.22-.59-6.33-.56-2.38.03-4.76.36-7.12.68-1.7.23-3.42.52-5.05,1.03-2.01.62-3.52,1.87-3.77,4.17-.13,1.18-.43,2.35-.44,3.52-.06,8.66-.06,17.31-.08,25.97,0,1.07-.04,2.13.03,3.19.24,3.63,2.41,5.79,6.03,6.09,3.71.3,7.41.63,11.11.95Z"/>
    <path class="cls-1" d="M1064.46,618.45c1.59,4.65,1.32,8.98.21,13.57-1.57.08-2.88.16-4.18.2-7.45.23-14.9.42-22.34.7-3.26.12-4.46,1.18-5.28,4.34-1.43,5.46,1.38,9.14,7.08,9.25,1.07.02,2.14.03,3.2.02,10.01-.04,20.03-.08,30.04-.11,1.73,0,3.48-.02,5.2.13,1.8.16,2.27.69,2.42,2.52.27,3.23-.34,6.29-1.46,9.34-.56,1.51-1.46,2.12-2.8,2.37-.78.14-1.6.05-2.4.05-17.09.01-34.18.03-51.27.03-1.84,0-3.78.33-5.57-1.65,0-2.27.08-4.91-.02-7.55-.11-3.17-.47-6.33-.53-9.5-.05-2.37.24-4.75.32-7.12.05-1.45.02-2.89-.02-4.34-.11-3.97-.73-8.01-.21-11.9.48-3.6.42-7.14.39-10.71-.04-4.36-.4-8.73-.53-13.09-.03-1.03.16-2.11.46-3.11.54-1.84,1.76-2.92,3.79-2.9,1.07.01,2.14-.04,3.2-.04,16.82,0,33.64,0,50.46.02.67,0,1.34-.04,2,.02,1.94.16,3.11,1.05,3.21,2.85.16,3.05.17,6.12.08,9.18-.06,1.69-.75,2.19-2.62,2.32-1.06.08-2.14.02-3.2.02-10.81,0-21.63-.05-32.44,0-1.7,0-3.39.47-5.09.74-.39.06-.78.18-1.14.33-2.03.88-3.31,5.05-2.61,8.65.64,3.24,2.27,4.35,5.53,4.72,7.3.82,14.63.62,21.95.65,1.31,0,2.63,0,4.17,0Z"/>
    <path class="cls-1" d="M1098.29,640.43c5.12,1.97,9.68,3.7,14.23,5.48,6.35,2.5,13.02,2.73,19.65,2.04,4.2-.44,8.35-1.72,11.49-4.81,3.65-3.59,3.09-8.51-1.35-11.07-2.66-1.53-5.57-2.39-8.71-2.4-2.27,0-4.56.12-6.81-.06-3.83-.31-7.64-.77-11.45-1.24-2.5-.31-5.04-.51-7.44-1.17-5.57-1.54-10.55-3.93-14.09-8.74-4.94-6.71-2.56-15.81,1.79-20.9,6.08-7.12,14.11-9.62,23.13-10.36,2.91-.24,5.83-.66,8.73-.58,8.68.24,17.1,1.93,25.28,4.68,3.69,1.24,4.46,2.92,3.38,6.58-.32,1.1-.69,2.23-1.3,3.2-2.18,3.46-3.62,3.51-6.48,2.49-4.08-1.46-8.31-2.7-12.58-3.49-7.73-1.43-15.39-.77-22.66,2.28-2.6,1.09-4.95,2.72-4.73,5.99.22,3.3,2.18,5.49,5.26,6.59,4.38,1.57,9.01,2.06,13.66,2.28,2.67.12,5.35-.07,8.01.03,5.93.24,11.57,1.62,16.71,4.5,6.58,3.68,9.99,11,9.05,17.95-.42,3.12-.78,6.41-3.29,8.83-1.4,1.34-2.93,2.56-4.45,3.77-.71.56-1.76.81-2.3,1.47-2.7,3.26-6.65,4.02-10.46,5.13-4.38,1.27-8.84,1.74-13.39,1.52-4.64-.22-9.3.42-13.93-.7-6.58-1.59-13.15-3.15-19.09-6.45-.92-.51-1.96-.97-2.59-1.73-.48-.58-.79-1.75-.52-2.4,1.54-3.6,4.05-6.49,7.28-8.71Z"/>
    <path class="cls-1" d="M1174.64,625.06c0-9.84,0-19.68,0-29.51,0-1.06-.03-2.13.06-3.19.18-2.08,1.17-3.22,3.23-3.3,3.46-.13,6.94-.12,10.4-.02,1.8.05,2.28.64,2.43,2.48.09,1.06.04,2.12.04,3.19,0,16.62-.06,33.24.01,49.85.02,3.96.57,7.92.69,11.88.11,3.63-.73,4.36-4.45,4.41-2.4.03-4.8.04-7.2,0-4.36-.07-5.16-.85-5.16-5.09-.01-10.24,0-20.47,0-30.71h-.05Z"/>
    <path class="cls-1" d="M1261.57,622.31c1.74,0,3.47-.05,5.21,0,5.71.19,11.43.4,17.14.66,2.1.09,2.83,1.05,2.58,3.16-1.02,8.71-4.48,16.26-9.78,23.18-3.46,4.52-7.77,7.1-12.89,9.04-4.94,1.88-9.97,2.87-15.13,3.06-6.57.24-12.84-1.67-19.05-3.66-1.64-.53-3.2-1.33-4.84-1.87-2.18-.72-3.99-1.78-5.57-3.63-2.25-2.63-4.94-4.86-7.44-7.26-.39-.37-.89-.69-1.12-1.15-3.29-6.67-7.02-13.24-6.52-21.07.26-4.04.88-8.07,1.6-12.05.44-2.4,1.75-4.52,3.32-6.41.34-.42.76-.79,1.04-1.25,4.12-6.95,10.39-10.97,17.59-13.95,3.14-1.3,6.18-2.26,9.6-2.28,3.44-.02,6.88-.78,10.32-.73,4.78.06,9.62.15,14.3,1.01,4.69.86,9.17,2.79,12.83,6.16,1.81,1.66,2.01,2.5.53,4.55-1.74,2.4-3.77,4.57-5.67,6.84-1.23,1.47-2.76,1.56-4.36.87-1.47-.64-2.87-1.45-4.3-2.18-5.37-2.75-10.88-3.53-16.96-2.76-5.4.69-9.94,2.53-14.13,5.9-5.22,4.2-8.02,9.48-8.35,16.36-.3,6.11,1.55,11.32,5.53,15.64,3.25,3.54,7.57,5.46,12.18,6.57,8.93,2.15,16.25.63,24.47-2.9,1.05-.45,2.02-1.35,2.73-2.27,1.07-1.39,2.06-3.56,1.5-5.1-.52-1.43-1.95-1.16-3.14-1.16-5.21,0-10.42.02-15.63-.02-2.89-.02-2.83-.19-3.8-3.08-.86-2.56.15-4.83.68-7.16.28-1.23,1.6-1.24,2.7-1.23,3.47.03,6.95.06,10.42.09.8,0,1.6,0,2.4,0,0,.02,0,.04,0,.05Z"/>
    <path class="cls-1" d="M1316.68,618.43c-2.05,2.58-2.01,5.59-2.08,8.41-.1,4.09.39,8.19.48,12.29.14,6.25.19,12.51.19,18.76,0,2.32-.58,2.9-2.79,2.95-3.47.09-6.94.09-10.41.02-2.13-.04-2.84-.63-3.37-2.68-.23-.88-.23-1.84-.23-2.76-.04-19.96-.07-39.92-.08-59.88,0-5.79.79-6.59,6.78-6.58,9.32.02,7.65-.63,13.87,5.74,9.31,9.52,18.61,19.05,27.95,28.54,2.24,2.27,4.65,4.36,7.62,5.69,2.57,1.15,3.64.72,4.37-1.98.3-1.13.3-2.36.3-3.55.05-8.92.08-17.83.11-26.75,0-.8-.02-1.6.02-2.4.17-3.65,1.5-5.08,5.09-5.25,2.4-.12,4.81-.11,7.21-.01,3.21.13,4.26,1.18,4.35,4.4.09,3.32.03,6.65.03,9.98,0,6.25.07,12.51-.04,18.76-.1,5.69-.57,11.39-.55,17.08.01,5.03.47,10.06.72,15.08.05.93.05,1.86.04,2.79-.04,3.37-.35,3.71-3.59,3.76-2.94.04-5.88-.05-8.81.05-2.16.08-3.87-.66-5.37-2.16-11.59-11.59-23.23-23.14-34.77-34.78-1.67-1.69-2.97-3.75-5.16-4.88-.56-.29-1.2-.43-1.87-.66Z"/>
    <path class="cls-1" d="M1481.18,608.89c-1.77-1.26-3.25-2.42-4.83-3.42-6.07-3.81-12.42-5.36-19.71-4.54-10.12,1.14-15.62,7.62-18.57,16.39-2.85,8.48.13,20.77,9.93,26.25,5.14,2.87,10.32,4.21,16.09,2.59,1.91-.54,3.95-.55,5.87-1.04,2.98-.77,5.86-1.81,8.18-4.06.77-.75,1.7-1.32,2.58-1.94,1.47-1.04,3.31-1.16,4.54-.2,2.39,1.86,5.43,3.16,6.56,6.72-2.41,5.96-7.06,9.64-12.83,11.91-4.22,1.66-8.54,2.98-13.2,2.68-1.82-.12-3.68.64-5.51.61-7.6-.11-15.06-1.23-22.13-4.25-1.4-.6-2.57-1.87-3.71-2.98-1.15-1.13-1.95-2.74-3.23-3.61-4.03-2.73-6.17-6.85-7.85-11.19-3.04-7.85-3.13-15.96-2.09-24.33.65-5.19,2.66-9.53,5.38-13.55,1.63-2.4,4.33-4,6.45-6.08,3.56-3.51,8.1-5.14,12.43-7.2.48-.23,1-.45,1.51-.48,5.85-.32,11.71-1.02,17.53-.75,4.83.22,9.87.48,14.26,3.17,3.53,2.16,7.15,4.23,10.44,6.76,2.73,2.1,2.54,4.94-.06,7.36-1.18,1.1-2.47,2.11-3.81,2.99-1.23.8-2.59,1.37-4.2,2.2Z"/>
    <path class="cls-1" d="M1540.92,660.75c-6.89.71-13.46-.9-19.99-2.92-2.36-.73-4.4-1.84-6.09-3.73-.89-.99-2.04-1.74-3.03-2.64-.9-.81-1.87-1.59-2.62-2.54-7.49-9.39-10.87-19.95-8.44-32.13.19-.94.1-1.93.22-2.88.43-3.44,1.11-6.7,3.88-9.18,1.15-1.03,1.59-2.86,2.62-4.09,2.88-3.46,6.17-6.51,10.14-8.57,5.6-2.91,11.33-5.37,17.82-5.12,2.09.08,4.25-.81,6.31-.6,6.17.65,12.44.85,18.35,3.23,3.53,1.42,6.41,3.87,9.54,5.92,3.79,2.48,6.03,6.07,7.5,10.32.31.9.62,1.86,1.15,2.62,4.55,6.57,3.9,14.09,3.52,21.48-.1,1.92-1.41,3.79-2.21,5.66-.8,1.87-1.77,3.67-2.45,5.58-1.6,4.5-4.29,7.88-7.89,11.05-7.5,6.59-16.08,8.62-25.5,8.53-.94-.01-1.87,0-2.81,0ZM1541.06,601.11c-7.38,0-12.55,1.36-17.29,7.46-.58.75-1.29,1.4-2,2.02-1.9,1.66-2.92,3.8-3.66,6.23-1.97,6.49-1.79,12.98,1.64,18.67,4.8,7.96,12.18,11.88,21.37,12.08,3.29.07,6.23-1.3,9.28-2.14,4.44-1.23,7.75-4.22,9.76-8.48,1.39-2.95,2.29-6.14,3.64-9.11,1.46-3.23,1.54-6.32-.04-9.48-.31-.61-.65-1.22-.83-1.88-2.35-8.59-13.06-16.3-21.86-15.36Z"/>
    <path class="cls-1" d="M1606.3,655.08c-.02.15-.1.29-.11.43-.27,4.03-3.13,5.64-6.38,5.38-2.45.16-4.46-.87-6.08-2.67-1.94-2.15-1.98-4.45-.45-6.75,1.86-2.79,5.19-4.15,8.63-2.32.92.49,1.87.98,2.69,1.61,1.4,1.08,1.97,2.56,1.7,4.32Z"/>
  </g>
</svg>