<?xml version="1.0" encoding="UTF-8"?>
<svg id="Layer_1" data-name="Layer 1" xmlns="http://www.w3.org/2000/svg" viewBox="0 0 1883.08 855.73">
  <defs>
    <style>
      .cls-1 {
        fill: #181410;
        stroke-width: 0px;
      }
    </style>
  </defs>
  <path class="cls-1" d="M493.33,515.53c6.55-.53,11.56-8.52,13.11-14.25.13-.49.2-1,.2-1.51-.06-11.2-13.52-14.19-9.74-34.75.92-3.83,3.17-7.03,6.55-9.61.3-.23.64-.43.97-.6,16.56-8.67,10.12-30.33,13.46-45.79.08-.38.13-.76.15-1.14,1.15-35.5,3.69-71.34,13.91-105.54,5.86-24.74,23.86-19.42,32.35-.24.26.58.42,1.21.5,1.84,1.61,12.75,2.92,25.97.78,38.8-3,26.26-6.96,52.06-11.15,78.13-.03.19-.05.37-.06.56-.94,15.12-13.35,42.04,7.13,48.23.42.13.87.21,1.31.25,47.62,4.5,44.08-5.45,41.11-47.33-.02-.22-.02-.45-.02-.68,1.28-47.21,6.98-107.42,53.35-132.16.27-.15.56-.28.85-.39,38.39-14.83,76.56,17.43,82.99,55.18,5.29,44.71-23.34,87.72-59.14,112.17-.13.09-.26.17-.4.25-31.94,18.36-19.86,72.14,19.41,65.38,59.41-7.32,92.5-175.65,90.19-227.03,0-.17-.02-.34-.05-.52-4.29-33.73,15.69-42.18,42.67-25.78.37.23.73.48,1.05.78,5.89,5.43,8.28,15.43,12.65,21.81,10.6,16.43,34.19,13.88,49.49,23.83,15.91,8.4,11.52,29.47,9,43.89-2.66,22.53-8.3,44.7-9.29,67.42-1.66,25.65-6.17,52.95,3.54,77.56.1.26.22.52.35.77,10.38,19.78,33.62,1.94,40.91-11.97.15-.28.31-.54.5-.79,15.68-21.17-15.68-46.47,4.25-67.23,10.71-10.19,13.99-1.22,21.84-.18,1.85.24,3.74-.28,5.14-1.51,5.65-4.97,8.96-17.96,11.12-23.36,11.32-26.14,20.17-53.22,27.06-80.85.11-.46.28-.89.49-1.31,5.63-11.37,5.2-27.11,15.84-35.16.41-.31.86-.57,1.33-.77,11.51-4.79,31.73,1.2,36.14,13.06.22.58.32,1.21.35,1.83.76,18.8-13.79,36.56-10.07,56.17.03.16.05.32.07.49,1.83,20.74,9.04,40.65,16.4,59.99.09.22.16.45.22.69,4.85,17.98,5.72,36.35,7.54,54.77.04.39.11.79.22,1.17,8.13,28.88,38.62-12.07,47.47-22.85.22-.27.42-.55.6-.85,5-8.39,6.94-17.81,7.05-27.56.83-48.6,32.15-159.85,98.62-130.45.35.15.7.34,1.02.55,43.45,28.33,35.2,52.06,45.47,95.09,4.74,18.43,29.19,21.59,43.28,12.18.43-.29.83-.62,1.17-1.01,9.61-10.59-.32-25.28,1.2-37.89.06-.48.07-.96.03-1.43-1.63-16.91,2.96-33.78,3.99-50.58.02-.26.05-.51.09-.77,8.54-45.21,28.37-135.04,68.25-160.42,21.25-13.84,47.83-.52,55.48,22.34,16.65,41.64,13.46,89.26,2.48,131.81-5.11,21.17-16.25,40.35-26.85,59.16-.17.31-.37.6-.59.88-6.52,8.21-13.05,16.31-19.76,24.37-.2.24-.41.46-.64.67-7.69,7.13-16.38,13.18-23.62,20.82-15.15,16.38.09,38.92,8.32,54.87.09.18.17.36.25.54,5.73,14.17,13.16,29.2,24.31,40.02,23.72,21.69,57.77-1.39,72.77-22.81.31-.44.56-.9.76-1.4,5.51-14.23-2.18-30.84-1.35-45.81.02-.29.01-.58,0-.87-2.34-28.69-7.32-59.07,4.55-86.4.05-.12.1-.24.14-.36,11.69-34.35,41.15-69.28,79.15-72.7.2-.02.41-.03.61-.03,55.36-1.12,68.23,66.14,44.53,106.52-.1.17-.2.35-.28.54-10.91,24.38-26.29,46.53-40.76,68.91-8.23,11.8-19.01,24.13-21.58,38.81-.09.51-.12,1.03-.09,1.55,2.42,45.43,44.49,36.24,67.99,10.31.1-.11.2-.21.3-.31,20.39-18.97,36.29-42.91,48.82-67.63,9.69-21.27,30.56-13.09,21.63,10.13-11.26,31.44-26.56,61.92-50.33,85.92-37.34,39.73-84.01,36.6-122.43.47-15.27-13.74-29.15-.08-42.59,7.97-.23.14-.45.29-.66.46-41.45,33.2-79.62,22.14-105.76-22.07-11.54-18.6-23.58-37.18-30.43-58.1-7.91-22.76-11.05-20.53-32.48-17.15-.55.09-1.14.1-1.69.05-32.79-3.09-27.42,5.4-36.05,32.2-.09.29-.17.59-.22.9-5.35,31.63-14.89,75.01-45.55,91.4-.25.13-.51.26-.78.36-23.73,9.5-46.35-4.76-59.08-24.94-.11-.17-.22-.33-.35-.49-9.29-11.56-13.78-25.63-18.76-39.32-.12-.33-.22-.67-.28-1.02-2.27-11.87-2.98-24.29-18.97-10.97-.22.18-17.43,14.33-45.13,37.64-.16.14-.31.3-.42.48-13.3,21.28-38.81,41.84-64.44,28.51-16.15-7.54-26.78-22.85-40.01-33.89-.49-.41-1.04-.76-1.63-1.01-19.86-8.28-31.9,20.02-46.6,29.18-.18.11-.34.23-.5.36-15.86,12.66-41.81,19.92-55.42.51-.13-.19-.26-.39-.38-.6-22.42-38.49-17.82-86.21-16.42-129.16,0-.14,0-.28,0-.43-1.12-26.44,19.19-61.44-4.67-81.9-.4-.34-.85-.65-1.32-.88-20.78-10.49-22.94,17.68-25,31.89-2.15,19.36-7.66,38.15-12.57,57.01-16.5,59.46-55.22,147.51-130.22,135.07-.22-.04-.44-.08-.66-.14-59.33-15.11-46.72-46.95-67.36-51.35-.35-.07-.71-.12-1.07-.14-7.87-.44-15.75-.49-23.62-.41-11.74.13-23.45-.69-35.13-1.83-5.63-.55-11,.27-15.09,5.9-12.81,14.17-19.13,35.12-36.48,44.47-27.2,13.74-49.08-15.1-58.36-37.62-.07-.17-.14-.34-.19-.52-8.27-24.58-10.36-50.83-14.55-76.28-1.94-12.65-1.3-29.86-9.8-40.51-1.05-1.32-2.6-2.21-4.28-2.37-6.38-.62-11.97,4.09-17.04,7.38-10.28,5.98-21.37,10.07-32.81,13.27-.15.04-.31.09-.45.15-53.3,19.88-73.17-4.78-66.42,55.85.01.13.02.26.03.38,3.01,54.06,1.68,108.16.98,162.24,0,.11-.05.22-.02.32,8.07,25.93,25.39,35.29,51.03,26.4.26-.09.53-.17.79-.22,15.95-3.42,32.24-4.76,48.03-8.84.24-.06.48-.11.72-.14,83.35-11.53,167.53-13.99,251.27-6.38,49.97,7.14,100.42,12.7,149.23,25.9.11.03.22.06.33.1,13.23,4.47,36.85,2.46,38.49,20.53.03.28.03.57.03.84-.4,20.29-24.94,15.6-38.46,12.43-.36-.08-.71-.13-1.07-.16-8.35-.49-16.67-1.4-24.92-2.91-67.69-8.35-135.56-16.6-204.01-16.49-68.08.07-135.74,10.59-202.4,23.76-49.57,11.58-98.18,26.27-146.58,41.99-.12.04-.25.08-.37.13-14.73,5.85-29.89,10.57-44.68,16.28-.19.07-.38.13-.58.19-10.42,2.76-21.98,11.71-32.57,6.02-.48-.26-.92-.59-1.31-.96-15.33-14.86,20.3-33.97,30.35-44.14.42-.42.88-.8,1.38-1.11,88.92-53.78,77.02-22.23,76.27-130.18-2.94-47.26-.06-95.15-10.05-141.76-.07-.32-.11-.66-.13-.99-.99-19.01-18.36-16.77-24.36-31.51-4.89-10.38-4.2-28.38,5.88-34.75.44-.28.93-.48,1.42-.64,21.87-7.14,32.65-7.76,30.16-35.27-1.25-25.95-3.58-50.3-5.24-76-1.3-22.04-.61-44.12-1.8-66.17,0-.16-.02-.32-.05-.48-1.06-7.94,1.9-20.39-4.69-25.4-9.97-6.67-26.62-2.71-35.8-11.99-16.03-14.57-15.25-45.24,3.18-57.69.26-.17.53-.33.81-.47,12.59-6.42,28.65-3.74,42.19-4.65,17.2-.51,34.27-2.34,51.54-1.94,58.84-1.03,117.72-.32,176.6,2.82.12,0,.24,0,.36,0,24.34-.25,48.5,2.5,72.78,3.22.17,0,.34,0,.52,0,17.56-.82,62.24-1,56.28,26.02-.13.59-.34,1.16-.64,1.69-7.1,12.65-25.95,14.9-38.86,15.48-.32.01-.63.05-.94.12-22.24,4.51-44.78,3.98-67.28,5.43-.11,0-.22.03-.33.03-58.51,2.57-88.99-.46-139.74,1.23-20.19.67-45.55,3.74-58.57,20.91-8.03,11.38-7.34,27.85-8.53,41.43-1.38,25.58-1.7,51.17-.67,76.82,0,.17.02.33.04.5,2.57,21.03-6.37,59.62,6.27,76.38.6.79,1.36,1.46,2.25,1.91,26.6,13.62,58.35-2.71,79.26-20.15.26-.22.54-.41.83-.59,12.64-7.44,25.09-16.27,33.64-28.44,10.64-14.57,3.25-40.8,22.37-48.65,38.43-17.53,27.01,78.37,26.22,99.49-.01.34,0,.67.05,1.01,2.8,22.94,6.51,111.47,20.93,128.1,1.3,1.5,3.24,2.36,5.21,2.2ZM1186.82,430.78c-.14,18.39-.35,36.89,5.34,54.61,4.69,13.36,18.7,33.79,33.95,19.92.22-.2.42-.42.6-.64,13.93-17.34,20.96-47.1,22.95-69.21,2.67-22.73-32.39-19.45-22.5-44.11,2.97-6.9,8.64-6.81,14.39-10.24,10.61-5.59,1.25-33.63-3.78-42.57-.16-.28-.28-.57-.39-.87-4.4-13.2-18.9-19.99-30.52-11.08-18.35,14.53-21.13,80.63-20.05,104.18ZM1531.19,397.97c0,.29-.02.57-.06.85-3.37,20.38,7.47,46.29,26.21,19.37,18.62-25.49,36.3-51.91,42.13-83.4,5.78-27.74-19.62-42.56-40.94-24.54-.18.15-.36.32-.52.5-21.38,22.95-27.39,56.86-26.83,87.23ZM1436.87,224.32c1.76-12.34-3.22-42.59-20.65-28.68-.47.38-.87.85-1.18,1.37-21.58,36.24-29.87,78.68-36.85,119.83-.03.15-.04.29-.05.44-.58,6.98-10.39,41.27.15,42.74,1.27.18,2.56-.25,3.57-1.04,14.84-11.6,24.23-31.26,31.36-48.37.06-.14.12-.27.19-.4,13.82-25.91,24.38-55.29,23.42-85.05,0-.28,0-.55.05-.83ZM646.53,395.66c.86,82.94,83.78-43.91,57.64-71.49-15.44-22.2-45.82.53-50.1,20.77-4.79,16.27-8.39,33.7-7.54,50.72ZM1053.94,464.75c-.01-.16-.02-.32-.01-.47.52-17.09-1.82-33.53-4.63-50.47-13.18-63.28-25.45-3.28-34.83,21.24-3.42,10.32-10.51,19.26-13.37,29.7-.17.62-.22,1.28-.14,1.92,4.59,40.08,56.75,44.99,52.98-1.92Z"/>
  <g>
    <path class="cls-1" d="M930.59,637.53c1.73-.35,3.23-.9,4.73-.9,14.15-.04,28.29-.07,42.44.1,3.41.04,6.86.61,10.2,1.33,8.84,1.91,14.97,7.64,19.91,14.79,4.69,6.79,6.96,14.37,6.67,22.65-.3,8.57-1.96,16.79-6.9,23.99-1.44,2.1-3.22,4.14-5.28,5.62-3.37,2.41-6.96,4.6-10.7,6.4-4.27,2.05-8.81,2.81-13.72,2.25-4.09-.47-8.3.19-12.46.36-.86.03-1.73.1-2.59.1-8.95.03-17.9-.09-26.85.15-4.71.13-5.66-1.78-5.63-5.49.12-15.82.09-31.65,0-47.48-.03-5.15-.54-10.3-.58-15.45-.02-2.68.48-5.37.77-8.39ZM965.59,699.88c7.74.04,13.3-1.01,18.23-2.85,3.24-1.21,6.44-2.55,8.77-5.28,3.82-4.47,5.41-9.93,5.25-15.51-.18-6.15-1.99-12.11-5.82-17.23-2.77-3.71-6.18-6.37-10.94-6.89-3.14-.34-6.28-.61-9.42-.91-2.28-.22-4.56-.64-6.84-.61-2.57.03-5.14.39-7.7.74-1.84.25-3.69.56-5.46,1.11-2.18.67-3.8,2.02-4.08,4.51-.14,1.27-.47,2.54-.47,3.8-.06,9.35-.07,18.71-.09,28.06,0,1.15-.04,2.31.03,3.45.26,3.93,2.6,6.25,6.51,6.58,4,.33,8.01.68,12.01,1.03Z"/>
    <path class="cls-1" d="M1080.56,668.49c1.72,5.03,1.42,9.7.23,14.67-1.7.08-3.11.17-4.52.22-8.05.25-16.1.46-24.14.75-3.53.13-4.82,1.28-5.71,4.69-1.55,5.9,1.5,9.87,7.65,9.99,1.15.02,2.31.03,3.46.02,10.82-.04,21.64-.09,32.46-.12,1.87,0,3.76-.02,5.62.14,1.95.17,2.45.75,2.62,2.72.29,3.49-.37,6.8-1.58,10.1-.6,1.63-1.57,2.29-3.03,2.56-.84.15-1.72.05-2.59.06-18.47.01-36.93.03-55.4.03-1.99,0-4.08.36-6.02-1.78,0-2.45.08-5.31-.02-8.16-.12-3.42-.51-6.84-.58-10.27-.05-2.56.26-5.13.35-7.7.05-1.56.02-3.13-.02-4.69-.12-4.29-.78-8.66-.22-12.86.52-3.89.46-7.72.42-11.57-.04-4.72-.43-9.43-.57-14.15-.03-1.12.18-2.28.49-3.36.58-1.99,1.9-3.15,4.1-3.13,1.15.01,2.31-.04,3.46-.04,18.18,0,36.36,0,54.53.02.72,0,1.45-.04,2.16.02,2.1.18,3.36,1.13,3.47,3.08.18,3.3.19,6.61.08,9.92-.06,1.83-.81,2.37-2.83,2.51-1.15.08-2.31.02-3.46.02-11.69,0-23.37-.05-35.06,0-1.83,0-3.67.5-5.5.8-.42.07-.84.19-1.24.36-2.2.95-3.58,5.46-2.82,9.34.69,3.51,2.45,4.7,5.97,5.1,7.89.88,15.81.67,23.72.71,1.42,0,2.84,0,4.51,0Z"/>
    <path class="cls-1" d="M1117.11,692.23c5.53,2.13,10.47,3.99,15.38,5.93,6.86,2.7,14.07,2.95,21.24,2.2,4.53-.47,9.02-1.86,12.42-5.2,3.95-3.88,3.34-9.2-1.46-11.96-2.87-1.65-6.02-2.58-9.41-2.59-2.45,0-4.92.13-7.36-.07-4.14-.33-8.26-.84-12.38-1.34-2.7-.33-5.45-.55-8.04-1.26-6.02-1.67-11.4-4.24-15.22-9.45-5.34-7.25-2.76-17.08,1.93-22.59,6.57-7.69,15.25-10.39,24.99-11.2,3.14-.26,6.3-.71,9.43-.63,9.38.26,18.48,2.09,27.32,5.06,3.98,1.34,4.82,3.15,3.65,7.11-.35,1.19-.74,2.41-1.4,3.46-2.36,3.74-3.91,3.8-7,2.69-4.41-1.58-8.98-2.92-13.6-3.77-8.36-1.54-16.63-.83-24.49,2.47-2.81,1.18-5.35,2.93-5.11,6.47.24,3.56,2.36,5.93,5.68,7.12,4.73,1.69,9.74,2.23,14.76,2.46,2.88.13,5.78-.08,8.66.04,6.41.25,12.5,1.76,18.06,4.87,7.11,3.98,10.79,11.89,9.78,19.39-.46,3.38-.84,6.92-3.56,9.54-1.51,1.45-3.16,2.77-4.81,4.08-.77.61-1.9.88-2.49,1.59-2.91,3.53-7.19,4.34-11.31,5.54-4.73,1.38-9.55,1.88-14.47,1.64-5.01-.24-10.05.46-15.05-.75-7.11-1.72-14.21-3.41-20.63-6.97-.99-.55-2.12-1.05-2.8-1.86-.52-.63-.86-1.89-.56-2.59,1.66-3.89,4.38-7.02,7.87-9.42Z"/>
    <path class="cls-1" d="M1199.61,675.62c0-10.63,0-21.26,0-31.89,0-1.15-.04-2.3.06-3.44.2-2.25,1.27-3.48,3.49-3.56,3.74-.14,7.49-.13,11.24-.02,1.95.06,2.46.7,2.63,2.68.1,1.14.05,2.3.05,3.44,0,17.96-.07,35.92.01,53.87.02,4.28.62,8.55.75,12.83.12,3.92-.79,4.71-4.81,4.77-2.59.03-5.19.04-7.78,0-4.71-.07-5.57-.92-5.58-5.5-.01-11.06,0-22.12,0-33.18h-.06Z"/>
    <path class="cls-1" d="M1293.55,672.65c1.88,0,3.75-.05,5.63,0,6.18.21,12.35.43,18.53.71,2.27.1,3.06,1.14,2.79,3.42-1.11,9.42-4.85,17.58-10.57,25.05-3.74,4.88-8.39,7.67-13.92,9.77-5.33,2.03-10.77,3.1-16.35,3.3-7.1.26-13.88-1.81-20.59-3.95-1.77-.57-3.46-1.44-5.23-2.02-2.36-.78-4.31-1.92-6.02-3.92-2.43-2.84-5.34-5.25-8.04-7.84-.42-.4-.96-.75-1.21-1.24-3.55-7.2-7.58-14.3-7.05-22.77.28-4.36.95-8.72,1.73-13.02.47-2.6,1.89-4.88,3.58-6.92.37-.45.82-.85,1.12-1.35,4.46-7.51,11.23-11.86,19.01-15.08,3.39-1.4,6.68-2.45,10.38-2.46,3.72-.02,7.44-.84,11.15-.79,5.16.07,10.4.17,15.45,1.09,5.07.93,9.91,3.02,13.87,6.66,1.95,1.8,2.18,2.71.57,4.92-1.88,2.59-4.07,4.94-6.12,7.4-1.33,1.59-2.99,1.69-4.71.94-1.59-.69-3.1-1.56-4.64-2.36-5.8-2.97-11.76-3.82-18.33-2.99-5.83.74-10.75,2.73-15.27,6.38-5.64,4.54-8.67,10.24-9.03,17.67-.32,6.6,1.68,12.23,5.97,16.9,3.52,3.82,8.18,5.9,13.16,7.1,9.65,2.33,17.56.68,26.44-3.13,1.13-.48,2.19-1.45,2.95-2.46,1.15-1.5,2.23-3.84,1.62-5.51-.57-1.54-2.11-1.25-3.39-1.26-5.63,0-11.26.03-16.89-.02-3.13-.03-3.06-.21-4.1-3.32-.93-2.77.16-5.22.73-7.73.3-1.32,1.73-1.34,2.92-1.33,3.75.04,7.51.07,11.26.1.87,0,1.73,0,2.6,0,0,.02,0,.04,0,.05Z"/>
    <path class="cls-1" d="M1353.1,668.46c-2.21,2.79-2.17,6.04-2.24,9.08-.1,4.42.42,8.85.52,13.28.15,6.76.21,13.51.2,20.27,0,2.5-.62,3.13-3.02,3.19-3.75.1-7.5.09-11.25.02-2.31-.04-3.07-.68-3.64-2.89-.24-.95-.25-1.98-.25-2.98-.04-21.57-.08-43.14-.08-64.7,0-6.26.86-7.12,7.32-7.11,10.07.02,8.26-.68,14.98,6.2,10.06,10.29,20.11,20.59,30.2,30.84,2.42,2.46,5.03,4.71,8.23,6.14,2.78,1.25,3.94.78,4.72-2.14.33-1.22.32-2.55.33-3.84.06-9.64.08-19.27.12-28.9,0-.86-.02-1.73.02-2.59.18-3.94,1.62-5.48,5.5-5.67,2.59-.12,5.2-.12,7.79-.01,3.47.14,4.61,1.28,4.7,4.76.1,3.59.03,7.19.03,10.78,0,6.76.07,13.52-.05,20.27-.11,6.15-.61,12.3-.6,18.46.01,5.43.51,10.87.78,16.3.05,1.01.05,2.01.04,3.02-.05,3.64-.38,4.01-3.88,4.06-3.17.05-6.35-.06-9.52.06-2.33.08-4.18-.71-5.8-2.33-12.53-12.52-25.1-25-37.57-37.58-1.81-1.82-3.21-4.05-5.57-5.27-.6-.31-1.3-.46-2.03-.71Z"/>
    <path class="cls-1" d="M1530.86,658.16c-1.92-1.36-3.52-2.62-5.22-3.69-6.55-4.12-13.42-5.79-21.3-4.91-10.93,1.23-16.88,8.24-20.07,17.71-3.08,9.16.14,22.45,10.73,28.37,5.56,3.1,11.16,4.55,17.39,2.8,2.06-.58,4.27-.59,6.34-1.13,3.22-.83,6.33-1.95,8.84-4.39.83-.81,1.84-1.43,2.79-2.1,1.59-1.13,3.58-1.25,4.9-.22,2.58,2.01,5.87,3.41,7.09,7.26-2.61,6.44-7.63,10.42-13.87,12.87-4.56,1.79-9.23,3.21-14.27,2.9-1.96-.12-3.97.69-5.96.66-8.21-.12-16.28-1.33-23.92-4.59-1.51-.64-2.78-2.02-4.01-3.22-1.25-1.22-2.1-2.96-3.49-3.9-4.35-2.95-6.66-7.4-8.48-12.1-3.29-8.49-3.39-17.24-2.26-26.29.7-5.61,2.88-10.29,5.81-14.64,1.76-2.6,4.68-4.33,6.96-6.57,3.85-3.79,8.76-5.56,13.43-7.78.51-.24,1.08-.49,1.63-.52,6.32-.34,12.65-1.1,18.95-.81,5.22.24,10.66.52,15.41,3.43,3.82,2.34,7.73,4.58,11.28,7.3,2.95,2.27,2.75,5.34-.07,7.95-1.28,1.19-2.67,2.28-4.12,3.23-1.33.86-2.8,1.48-4.53,2.38Z"/>
    <path class="cls-1" d="M1595.41,714.19c-7.45.77-14.55-.97-21.6-3.15-2.55-.79-4.76-1.99-6.58-4.03-.96-1.07-2.2-1.88-3.28-2.85-.98-.88-2.02-1.72-2.84-2.74-8.1-10.15-11.74-21.55-9.12-34.72.2-1.01.1-2.08.23-3.12.47-3.72,1.2-7.24,4.2-9.92,1.25-1.11,1.72-3.09,2.83-4.42,3.11-3.74,6.66-7.03,10.96-9.26,6.05-3.14,12.24-5.81,19.26-5.53,2.26.09,4.59-.88,6.82-.64,6.67.7,13.44.92,19.83,3.5,3.81,1.54,6.92,4.18,10.31,6.4,4.09,2.68,6.52,6.56,8.1,11.15.34.97.66,2.01,1.24,2.83,4.92,7.1,4.22,15.23,3.8,23.21-.11,2.08-1.53,4.09-2.39,6.11-.86,2.02-1.91,3.96-2.65,6.03-1.73,4.86-4.63,8.51-8.53,11.94-8.1,7.12-17.38,9.32-27.56,9.22-1.02-.01-2.03,0-3.03,0ZM1595.57,649.74c-7.97.01-13.56,1.47-18.69,8.06-.63.81-1.4,1.51-2.17,2.18-2.05,1.8-3.16,4.11-3.96,6.73-2.13,7.01-1.94,14.03,1.77,20.17,5.19,8.61,13.16,12.84,23.09,13.05,3.56.08,6.73-1.4,10.02-2.32,4.8-1.33,8.38-4.56,10.55-9.17,1.5-3.19,2.47-6.63,3.93-9.85,1.58-3.49,1.67-6.83-.04-10.24-.33-.66-.7-1.32-.89-2.03-2.54-9.28-14.11-17.61-23.62-16.6Z"/>
    <path class="cls-1" d="M1666.07,708.07c-.02.16-.11.31-.12.47-.29,4.35-3.38,6.1-6.89,5.82-2.64.17-4.82-.94-6.57-2.88-2.09-2.32-2.14-4.81-.49-7.3,2.01-3.01,5.6-4.49,9.33-2.51,1,.53,2.02,1.06,2.9,1.74,1.51,1.17,2.13,2.76,1.84,4.67Z"/>
  </g>
</svg>